HIERARCHY
ROOT Hips
{
	OFFSET -3.958830 18.904000 13.208200
	CHANNELS 6 Xposition Yposition Zposition Zrotation Yrotation Xrotation 
	JOINT LHipJoint
	{
		OFFSET 0.000000 0.000000 0.000000
		CHANNELS 3 Zrotation Yrotation Xrotation
		JOINT LeftUpLeg
		{
			OFFSET 1.800000 -1.400000 0.085000
			CHANNELS 3 Zrotation Yrotation Xrotation
			JOINT LeftLeg
			{
				OFFSET 2.215000 -6.000000 0.000000
				CHANNELS 3 Zrotation Yrotation Xrotation
				JOINT LeftFoot
				{
					OFFSET 2.500000 -6.900000 0.000000
					CHANNELS 3 Zrotation Yrotation Xrotation
					JOINT LeftToeBase
					{
						OFFSET 0.200000 -0.500000 1.950000
						CHANNELS 3 Zrotation Yrotation Xrotation
						End Site
						{
							OFFSET 0.000000 0.000000 0.000000
						}
					}
				}
			}
		}
	}
	JOINT RHipJoint
	{
		OFFSET 0.000000 0.000000 0.000000
		CHANNELS 3 Zrotation Yrotation Xrotation
		JOINT RightUpLeg
		{
			OFFSET -1.800000 -1.400000 0.085000
			CHANNELS 3 Zrotation Yrotation Xrotation
			JOINT RightLeg
			{
				OFFSET -2.215000 -6.000000 0.000000
				CHANNELS 3 Zrotation Yrotation Xrotation
				JOINT RightFoot
				{
					OFFSET -2.500000 -6.900000 0.000000
					CHANNELS 3 Zrotation Yrotation Xrotation
					JOINT RightToeBase
					{
						OFFSET -0.200000 -0.500000 1.950000
						CHANNELS 3 Zrotation Yrotation Xrotation
						End Site
						{
							OFFSET 0.000000 0.000000 0.000000
						}
					}
				}
			}
		}
	}
	JOINT LowerBack
	{
		OFFSET 0.000000 0.000000 0.000000
		CHANNELS 3 Zrotation Yrotation Xrotation
		JOINT Spine
		{
			OFFSET -0.087000 1.940000 -0.288900
			CHANNELS 3 Zrotation Yrotation Xrotation
			JOINT Spine1
			{
				OFFSET 0.000000 1.950000 0.060000
				CHANNELS 3 Zrotation Yrotation Xrotation
				JOINT Neck
				{
					OFFSET 0.000000 0.000000 0.000000
					CHANNELS 3 Zrotation Yrotation Xrotation
					JOINT Neck1
					{
						OFFSET 0.000000 1.600000 0.340000
						CHANNELS 3 Zrotation Yrotation Xrotation
						JOINT Head
						{
							OFFSET 0.000000 1.667000 -0.240000
							CHANNELS 3 Zrotation Yrotation Xrotation
							End Site
							{
								OFFSET 0.000000 0.000000 0.000000
							}
						}
					}
				}
				JOINT LeftShoulder
				{
					OFFSET 0.000000 0.000000 0.000000
					CHANNELS 3 Zrotation Yrotation Xrotation
					JOINT LeftArm
					{
						OFFSET 2.700000 1.550000 -0.730000
						CHANNELS 3 Zrotation Yrotation Xrotation
						JOINT LeftForeArm
						{
							OFFSET 5.450000 0.000000 0.000000
							CHANNELS 3 Zrotation Yrotation Xrotation
							JOINT LeftHand
							{
								OFFSET 3.450000 0.000000 0.000000
								CHANNELS 3 Zrotation Yrotation Xrotation
								JOINT LeftHandIndex1
								{
									OFFSET 0.750000 0.000000 0.000000
									CHANNELS 3 Zrotation Yrotation Xrotation
									End Site
									{
										OFFSET 0.000000 0.000000 0.000000
									}
								}
							}
						}
					}
				}
				JOINT RightShoulder
				{
					OFFSET 0.000000 0.000000 0.000000
					CHANNELS 3 Zrotation Yrotation Xrotation
					JOINT RightArm
					{
						OFFSET -2.700000 1.550000 -0.730000
						CHANNELS 3 Zrotation Yrotation Xrotation
						JOINT RightForeArm
						{
							OFFSET -5.450000 0.000000 0.000000
							CHANNELS 3 Zrotation Yrotation Xrotation
							JOINT RightHand
							{
								OFFSET -3.450000 0.000000 0.000000
								CHANNELS 3 Zrotation Yrotation Xrotation
								JOINT RightHandIndex1
								{
									OFFSET -0.750000 0.000000 0.000000
									CHANNELS 3 Zrotation Yrotation Xrotation
									End Site
									{
										OFFSET 0.000000 0.000000 0.000000
									}
								}
							}
						}
					}
				}
			}
		}
	}
}
MOTION
Frames: 6
Frame Time: 0.016667
-0.359860 18.536680 -5.404080 6.805855 -23.703387 -14.831556 -15.566350 11.466687 6.318145 32.988437 -0.138494 -20.709532 -57.514209 35.241315 29.873592 2.523050 12.181336 0.541266 0.504430 0.398020 0.402720 18.023596 -9.898772 1.627983 -19.202306 -0.033076 -14.401800 8.781431 -6.503026 16.363610 -0.566771 -3.232381 3.232205 -0.187190 -0.348660 0.082960 -2.604381 -1.779126 -9.316959 -10.958489 0.722335 30.141655 1.338259 1.540322 -6.078900 2.735388 -5.786521 -20.103617 -24.542994 3.989307 70.697180 14.576310 -12.940410 -24.156000 -5.455435 -27.894991 7.300812 10.798218 -13.614805 1.701438 -159.417520 -58.491154 145.985986 -2.591814 3.417189 0.727820 -0.567170 0.604110 0.232680 2.968245 36.486547 8.976315 -13.868137 13.566854 -6.999408 128.141727 75.447618 121.647160 2.315431 -0.133697 0.241530 0.065890 -0.392340 0.060000 
-0.383490 18.511040 -5.400570 7.674672 -25.873195 -15.385220 -15.584749 11.406284 6.361183 33.475930 0.700961 -20.980158 -60.210456 35.880025 28.621599 2.504484 12.181928 0.552441 0.488760 0.363450 0.415430 18.024967 -9.906486 1.595420 -18.726555 0.055420 -13.620244 7.922942 -6.067000 15.205633 -0.554395 -3.095206 3.292334 -0.189410 -0.339390 0.074230 -2.567696 -1.668682 -9.302251 -11.580057 2.002114 30.050363 1.461924 2.692743 -6.128495 2.849366 -5.621238 -20.138610 -24.144883 3.633148 70.918126 14.348030 -12.737270 -25.211080 -5.149725 -27.444699 7.030709 10.325797 -13.736040 1.554149 -159.618199 -58.706667 146.107271 -2.607457 3.351837 0.761430 -0.565600 0.595500 0.212110 2.578454 36.323937 9.332879 -14.167426 12.630686 -6.565588 129.176701 73.774780 120.112805 2.347127 -0.280398 0.204600 0.095870 -0.368160 0.032560 
-0.497030 18.421280 -5.349340 9.901192 -23.212963 -14.348246 -15.628529 11.030748 6.620448 34.100126 0.367801 -24.894302 -65.555145 38.226155 28.029807 2.591686 12.304441 0.527458 0.468260 0.315400 0.433880 18.028831 -9.798330 1.611907 -20.656030 -0.222689 -13.152990 8.283455 -6.023725 13.071813 -0.552165 -3.165121 3.242868 -0.215120 -0.377180 0.071650 -2.612700 -1.331411 -9.439617 -15.456843 2.725612 27.964709 3.310151 2.139003 -7.071017 2.416894 -5.181681 -20.789719 -23.073702 2.872518 71.160826 13.674690 -13.067860 -22.961060 -5.105206 -27.401012 6.998156 9.094306 -14.116390 1.607918 -162.887658 -58.678061 151.704040 -2.579866 3.357323 0.761260 -0.569110 0.582870 0.178290 3.450505 35.391431 10.595237 -13.011874 11.395198 -4.943239 142.192917 71.477564 133.523259 2.373973 -0.944728 0.202680 0.040460 -0.366310 0.003440 
-0.601750 18.303670 -5.337840 12.955721 -21.351749 -16.020019 -15.672338 10.847788 6.592746 34.732134 0.528120 -25.424235 -71.312137 40.669815 27.168807 2.633732 12.383544 0.513339 0.517080 0.344400 0.460400 18.020542 -9.667881 1.646147 -22.807636 -0.624968 -10.632526 7.606834 -5.602482 9.694154 -0.605768 -3.339678 3.150278 -0.174250 -0.394230 0.091010 -2.594865 -1.271281 -9.404204 -19.714292 3.994816 27.843696 4.228220 2.286749 -5.160333 2.026846 -5.584207 -20.123911 -23.498315 2.707796 69.465282 15.102890 -13.137140 -24.089660 -4.400245 -26.408045 7.081648 7.489995 -12.516858 0.595522 -164.564384 -58.970329 152.842160 -2.561887 3.408472 0.773710 -0.577520 0.570500 0.171400 3.423084 34.843448 10.405620 -13.342794 10.307875 -5.757147 141.382827 71.858926 132.273526 2.353060 -0.975843 0.202850 0.003430 -0.373490 -0.015660 
-0.701260 18.133440 -5.318370 15.599496 -21.280648 -16.697706 -15.741366 10.691670 6.641117 35.849901 1.375944 -26.980831 -77.432128 42.812586 25.381384 2.621889 12.449768 0.546832 0.440280 0.241940 0.399240 18.009756 -9.539324 1.623524 -23.924101 -0.612427 -9.862206 7.034756 -5.428198 8.485327 -0.561142 -3.462683 3.109624 -0.177490 -0.296040 0.073080 -2.517728 -1.258574 -9.391790 -22.525431 5.231443 26.410392 4.237474 2.833554 -3.064988 1.535453 -5.649407 -18.851620 -22.388643 0.774559 64.854610 15.122700 -13.960430 -22.979470 -3.089690 -24.877049 6.800744 5.606279 -11.241407 -0.868408 -170.737384 -61.442100 162.933450 -2.651141 3.342605 0.749520 -0.512510 0.474410 0.151470 2.808539 33.578761 10.204274 -13.186272 9.500184 -6.580567 149.532806 73.578275 143.620288 2.287471 -1.159049 0.124180 0.051780 -0.299190 -0.027780 
-0.774330 17.974060 -5.323470 17.237174 -22.211217 -18.997752 -15.740014 10.599054 6.644430 37.176497 2.195589 -26.796381 -81.501452 44.220179 24.457615 2.692083 12.359865 0.600365 0.472830 0.305220 0.393710 18.034338 -9.546964 1.613251 -24.500804 -0.710623 -7.773187 7.479921 -5.695116 8.439795 -0.624243 -3.721369 3.038934 -0.157880 -0.306190 0.086720 -2.571389 -1.132489 -9.389933 -23.599405 6.353975 28.056108 3.598519 3.728899 -1.681714 1.488121 -5.792238 -18.685927 -21.794955 -0.038401 62.830773 15.384320 -13.619520 -24.143430 -3.006212 -24.141257 7.032246 4.041085 -8.087275 -2.888591 -177.344349 -64.282546 172.973145 -2.619490 3.378860 0.729180 -0.514620 0.497550 0.186460 2.660869 33.540582 10.521291 -12.814959 8.796493 -8.015555 164.071754 78.207231 163.353622 2.290174 -1.461607 0.156580 0.032980 -0.339900 -0.001670 
